<?xml version="1.0" standalone="no"?><!DOCTYPE svg PUBLIC "-//W3C//DTD SVG 1.1//EN" "http://www.w3.org/Graphics/SVG/1.1/DTD/svg11.dtd"><svg t="1736001340248" class="icon" viewBox="0 0 1024 1024" version="1.1" xmlns="http://www.w3.org/2000/svg" p-id="4619" xmlns:xlink="http://www.w3.org/1999/xlink" width="512" height="512"><path d="M695.04 541.184c-0.128 0.256-0.384 0.384-0.512 0.512l-13.44 12.416c-13.568 12.032-28.416 23.424-44.544 34.176-20.096 14.08-39.552 27.008-58.24 38.912-10.88 6.912-21.632 13.44-32.128 19.456-118.272 69.376-207.488 91.648-273.664 90.496-8.576-0.128-16.896-0.64-24.832-1.664-16.384-1.792-31.104-5.12-44.416-9.472-20.992-6.912-38.144-16.256-52.096-26.368-50.304-36.096-64-105.984-28.032-156.416 49.024-69.12 153.472-87.168 153.472-87.168 19.84-12.544 31.616-26.624 38.144-40.96 11.264-24.96 6.272-50.304-0.768-68.352-6.016-15.744-13.44-25.856-12.288-24.576-65.536-194.56 91.52-263.808 191.744-287.872 118.016-28.288 241.28 32 286.208 144.64 44.032 110.08 24.576 256-84.608 362.24z" fill="#373939" p-id="4620"></path><path d="M694.784 541.312l-0.256 0.384-13.44 12.416c-13.568 12.032-28.416 23.424-44.544 34.176-20.096 14.08-39.552 27.008-58.24 38.912 2.816 5.248 6.016 9.728 9.088 13.312l-27.776 25.6-13.312-19.584-40.192-59.136 55.424-118.272c0.256 3.968 19.456 100.864 41.344 105.984 23.936 5.504 87.168-30.72 91.904-33.792zM409.088 685.568c-40.704 39.552-93.056 50.56-136.576 51.456-26.624-0.384-49.536-4.608-69.12-11.008 194.816-20.48 205.696-284.16 205.696-284.16 97.152 142.08 0 243.712 0 243.712z" fill="#21221E" p-id="4621"></path><path d="M873.728 745.344l-2.816 110.336c-1.536 61.952-53.376 110.72-115.2 108.544l-513.024-18.048c-57.216-2.048-101.376-50.816-97.536-107.904l5.504-83.2c11.136-22.4 57.984-15.616 57.984-15.616 13.952-0.64 27.008-2.048 39.168-3.968C473.6 699.136 418.432 457.088 418.432 457.088c-80.384-4.48-102.656-39.04-102.656-39.04-0.384-1.024-0.64-1.92-0.896-2.944-6.656-21.632-6.144-44.8-0.768-68.352C338.688 239.616 464.128 126.72 464.128 126.72c-2.176 15.616 14.592 90.368 78.08 144s30.08 103.808 30.08 103.808l16-0.896c2.688-0.128 5.376-0.768 7.936-1.408 15.488-4.224 25.216 0 31.104 6.528 12.928 14.208 11.52 36.992-2.816 49.664-20.992 18.56-61.184 19.712-61.184 19.712-0.768 7.168-1.536 14.208-2.048 20.992-7.04 85.632 3.072 132.48 16.896 157.952 2.816 5.248 6.016 9.728 9.088 13.312 16.128 18.816 33.152 16.896 34.176 16.384 226.176 14.848 252.288 88.576 252.288 88.576z" fill="#F2B5B0" p-id="4622"></path><path d="M383.666622 243.928062a9.984 19.2 39.635 1 0 24.49515-29.572751 9.984 19.2 39.635 1 0-24.49515 29.572751Z" fill="#373939" p-id="4623"></path><path d="M443.727717 302.066103a9.984 19.2 39.635 1 0 24.495151-29.572751 9.984 19.2 39.635 1 0-24.495151 29.572751Z" fill="#373939" p-id="4624"></path><path d="M418.432 256.256l-59.648 27.136c-4.096 1.92-6.016 6.4-4.224 10.368l4.864 10.624c4.736 10.368 19.968 12.288 27.52 3.328l37.632-44.416c3.2-3.968-1.408-9.216-6.144-7.04z" fill="#BC6B68" p-id="4625"></path><path d="M344.448 323.84s18.432 40.192 49.024 39.296c0 0.128-78.336 31.872-49.024-39.296" fill="#E62B3C" p-id="4626"></path><path d="M512.896 289.408c-1.408 0-2.816-1.024-3.2-2.432-9.216-33.28-46.592-36.352-46.976-36.352-1.792-0.128-3.2-1.792-3.072-3.584 0.128-1.792 1.664-3.2 3.584-3.072 0.384 0 42.496 3.456 52.992 41.216 0.512 1.792-0.512 3.584-2.304 4.096-0.384 0-0.64 0.128-1.024 0.128zM430.08 214.912c-1.408 0-2.816-1.024-3.2-2.432-6.272-22.144-31.488-24.192-32.64-24.32-1.792-0.128-3.2-1.792-3.072-3.584 0.128-1.792 1.792-3.2 3.584-3.072 1.28 0.128 30.976 2.432 38.528 29.184 0.512 1.792-0.512 3.584-2.304 4.096-0.256 0.128-0.64 0.128-0.896 0.128z" fill="#363838" p-id="4627"></path><path d="M418.432 457.088s87.552 4.352 114.816-22.912c0 0-40.32 80.768-108.8 87.936l-6.016-65.024z" fill="#D89395" p-id="4628"></path><path d="M562.432 441.728m-20.48 0a20.48 20.48 0 1 0 40.96 0 20.48 20.48 0 1 0-40.96 0Z" fill="#FFFFFF" p-id="4629"></path><path d="M583.04 385.28s47.104-3.328 38.528 21.76c-8.704 25.088-27.008 17.536-27.008 17.536s45.184-32.384-10.368-38.272" fill="#D89395" p-id="4630"></path><path d="M221.44 737.92s237.952 176.384 636.8-0.896l1.664-1.28c5.248-3.968 12.8-1.152 13.952 5.248 5.12 28.16 15.104 96.128 11.264 173.568-4.096 82.432-492.928 59.008-680.96 46.976-41.6-2.688-74.752-35.456-77.696-76.8l-5.504-77.312s7.296-88.832 100.48-69.504z" fill="#F5B335" p-id="4631"></path><path d="M454.4 785.536s75.52 1.28 75.648 29.184c0 0 15.36-33.664 72.832-29.184 0 0-61.696-15.744-71.168 12.928-0.128 0-7.04-16.256-77.312-12.928z" fill="#D89395" p-id="4632"></path></svg>